<?xml version="1.0" standalone="no"?>
<!DOCTYPE svg PUBLIC "-//W3C//DTD SVG 20010904//EN"
 "http://www.w3.org/TR/2001/REC-SVG-20010904/DTD/svg10.dtd">
<svg version="1.0" xmlns="http://www.w3.org/2000/svg"
 width="256.000000pt" height="256.000000pt" viewBox="0 0 256.000000 256.000000"
 preserveAspectRatio="xMidYMid meet">

<g transform="translate(0.000000,256.000000) scale(0.100000,-0.100000)"
fill="#a33737" stroke="none">
<path d="M1275 2479 c4 -6 -3 -13 -14 -16 -26 -7 -22 -29 4 -25 10 2 21 -1 25
-8 7 -11 40 -3 40 10 0 4 -9 10 -20 13 -13 3 -18 10 -14 21 4 11 1 16 -11 16
-9 0 -13 -5 -10 -11z"/>
<path d="M1131 2462 c3 -19 -2 -23 -16 -12 -9 7 -18 10 -22 6 -3 -3 -1 -6 5
-6 7 0 12 -5 12 -11 0 -5 -4 -7 -10 -4 -5 3 -10 2 -10 -4 0 -12 21 -19 43 -13
10 3 16 11 13 18 -3 8 -1 14 3 14 5 0 12 -6 14 -12 3 -7 6 -4 6 7 1 14 -6 21
-19 22 -11 1 -19 -1 -19 -5z"/>
<path d="M1487 2437 c-28 -24 -27 -37 4 -37 24 0 49 27 43 45 -8 20 -14 19
-47 -8z"/>
<path d="M1041 2414 c0 -11 3 -14 6 -6 3 7 2 16 -1 19 -3 4 -6 -2 -5 -13z"/>
<path d="M835 2407 c-11 -7 -20 -18 -20 -26 0 -8 -6 -16 -14 -19 -8 -3 -11 0
-7 7 4 6 2 11 -3 11 -6 0 -11 -7 -11 -16 0 -8 -5 -12 -10 -9 -6 4 -8 11 -5 16
16 25 -125 -54 -215 -121 -94 -70 -213 -194 -208 -217 2 -10 11 -17 19 -15 12
3 12 1 1 -10 -11 -11 -16 -10 -27 5 -12 17 -17 14 -54 -42 -48 -70 -141 -257
-140 -280 0 -10 2 -12 6 -3 2 6 10 12 17 12 16 0 69 40 62 47 -3 3 0 10 5 17
5 6 30 46 54 90 56 98 113 173 189 245 41 39 53 57 42 59 -12 3 -13 6 -3 17 7
8 14 9 18 3 4 -6 40 12 84 42 43 29 119 72 169 96 50 24 97 52 104 64 7 12 8
20 2 20 -5 0 -10 -4 -10 -10 0 -5 -4 -10 -9 -10 -5 0 -7 9 -4 20 6 22 -2 24
-32 7z"/>
<path d="M1201 2381 c-8 -5 -23 -8 -34 -5 -11 2 -17 1 -14 -3 4 -3 -1 -19 -10
-34 -19 -32 -55 -49 -61 -30 -3 8 -9 6 -17 -6 -17 -23 -1 -44 29 -38 11 2 38
7 58 10 27 4 36 10 32 20 -4 8 1 18 10 21 9 3 16 12 16 20 0 8 9 14 19 14 13
0 18 6 17 18 -3 20 -25 26 -45 13z m-1 -25 c0 -3 -4 -8 -10 -11 -5 -3 -10 -1
-10 4 0 6 5 11 10 11 6 0 10 -2 10 -4z m-30 -40 c0 -3 -4 -8 -10 -11 -5 -3
-10 -1 -10 4 0 6 5 11 10 11 6 0 10 -2 10 -4z"/>
<path d="M1398 2357 c-16 -13 -28 -31 -28 -41 0 -16 -2 -17 -16 -5 -14 12 -16
11 -13 -6 3 -11 13 -21 23 -23 12 -3 16 0 11 7 -4 7 9 26 29 45 52 47 47 66
-6 23z"/>
<path d="M1335 2360 c-3 -5 1 -10 10 -10 9 0 13 5 10 10 -3 6 -8 10 -10 10 -2
0 -7 -4 -10 -10z"/>
<path d="M965 2340 c-3 -6 1 -7 9 -4 9 3 16 1 16 -6 0 -6 5 -8 10 -5 6 3 10
10 10 16 0 12 -37 12 -45 -1z"/>
<path d="M1270 2325 c-9 -10 -9 -15 -1 -15 6 0 11 5 11 11 0 6 7 9 15 5 8 -3
15 -1 15 4 0 15 -26 12 -40 -5z"/>
<path d="M1467 2313 c-5 -26 -4 -26 9 -8 16 22 18 35 5 35 -5 0 -11 -12 -14
-27z"/>
<path d="M1230 2319 c0 -5 5 -7 10 -4 6 3 10 8 10 11 0 2 -4 4 -10 4 -5 0 -10
-5 -10 -11z"/>
<path d="M835 2300 c-3 -6 1 -7 9 -4 18 7 21 14 7 14 -6 0 -13 -4 -16 -10z"/>
<path d="M1296 2295 c4 -8 8 -15 10 -15 2 0 4 7 4 15 0 8 -4 15 -10 15 -5 0
-7 -7 -4 -15z"/>
<path d="M1876 2296 c6 -14 -5 -21 -28 -17 -5 0 -8 -3 -8 -9 0 -5 6 -10 14
-10 7 0 19 -7 26 -15 7 -8 18 -15 24 -15 6 0 4 5 -4 10 -10 6 -11 10 -2 10 6
0 12 5 12 11 0 5 -4 7 -10 4 -5 -3 -10 3 -10 14 0 11 -4 23 -10 26 -6 3 -7 -1
-4 -9z"/>
<path d="M1479 2283 c-13 -16 -12 -17 4 -4 9 7 17 15 17 17 0 8 -8 3 -21 -13z"/>
<path d="M713 2242 c-160 -97 -283 -213 -377 -360 -51 -78 -53 -108 -4 -67 16
14 33 25 37 25 12 0 76 64 79 79 4 18 53 64 83 78 19 9 20 12 7 12 -12 1 -18
9 -18 27 0 14 4 23 10 19 6 -3 10 -13 10 -21 0 -16 16 -19 25 -3 9 13 -3 61
-13 55 -4 -3 -14 0 -22 5 -12 7 -11 8 5 6 11 -1 26 -6 33 -10 6 -5 17 -5 23
-1 8 4 8 1 1 -12 -9 -16 -6 -19 14 -19 29 0 32 24 7 63 -17 26 -17 27 2 11 11
-8 30 -14 42 -13 12 0 20 -3 17 -8 -3 -4 -9 -6 -14 -3 -5 3 -11 1 -14 -4 -4
-5 -2 -12 4 -16 12 -7 126 64 135 84 7 18 -17 34 -27 18 -5 -8 -8 -7 -8 5 0
21 37 48 56 41 8 -3 14 0 14 6 0 6 -4 11 -10 11 -5 0 -10 5 -10 11 0 5 5 7 11
3 7 -4 10 -1 7 6 -8 25 -24 21 -105 -28z m-203 -213 c0 -5 -8 -9 -17 -8 -11 0
-13 3 -5 6 6 2 9 10 6 15 -4 7 -2 8 4 4 7 -4 12 -11 12 -17z"/>
<path d="M1238 2283 c6 -2 18 -2 25 0 6 3 1 5 -13 5 -14 0 -19 -2 -12 -5z"/>
<path d="M1927 2273 c-4 -3 -7 -15 -7 -26 0 -25 9 -17 15 12 4 22 2 25 -8 14z"/>
<path d="M1814 2212 c-3 -9 -19 -25 -37 -36 -30 -17 -31 -18 -12 -32 22 -16
59 -19 50 -4 -3 6 -2 10 4 10 6 0 8 7 4 16 -7 20 18 38 29 21 5 -8 8 -4 8 9 0
12 -7 25 -16 28 -23 9 -25 8 -30 -12z"/>
<path d="M2095 2110 c-4 -6 -11 -8 -16 -5 -22 14 -6 -25 19 -47 15 -12 28 -25
27 -28 0 -3 8 -15 17 -28 11 -17 18 -20 23 -11 5 7 1 17 -8 24 -10 7 -17 17
-17 22 0 5 -11 15 -25 21 -14 6 -25 17 -25 24 0 9 3 8 10 -2 5 -8 10 -11 10
-6 0 5 7 3 15 -4 28 -23 40 4 14 29 -25 23 -35 26 -44 11z"/>
<path d="M2019 2039 c-14 -11 -35 -21 -47 -22 -12 -1 -22 -4 -22 -7 0 -3 25
-31 55 -63 30 -33 55 -63 55 -68 0 -5 -7 -21 -16 -34 -18 -27 -13 -31 17 -15
25 14 24 8 -6 -24 -14 -15 -29 -25 -34 -22 -18 12 -107 -96 -95 -115 4 -7 3
-9 -3 -6 -23 14 -40 -39 -20 -59 4 -4 -1 -13 -11 -21 -16 -12 -16 -13 2 -6 13
4 17 2 14 -8 -3 -8 -15 -13 -27 -12 -18 2 -19 0 -9 -11 12 -12 51 -17 46 -6
-1 3 4 15 11 27 10 20 9 22 -6 16 -14 -4 -15 -3 -7 6 6 7 18 13 25 14 24 4 55
31 98 84 41 52 50 70 31 58 -5 -3 -10 0 -10 9 0 8 -3 23 -6 33 -4 13 0 11 16
-7 19 -23 22 -24 33 -8 11 16 13 15 34 -10 13 -15 22 -22 21 -17 -2 6 9 23 24
37 22 23 28 25 38 13 9 -11 9 -19 -3 -35 -7 -11 -17 -17 -20 -14 -3 4 -14 -1
-23 -11 -14 -14 -15 -18 -3 -25 7 -5 10 -12 6 -16 -4 -4 0 -18 9 -32 18 -27
33 -71 40 -117 7 -52 21 -90 31 -88 5 1 10 -4 10 -12 0 -8 -3 -12 -7 -10 -3 2
-6 -60 -6 -138 0 -143 -9 -207 -46 -321 -24 -75 -87 -206 -99 -206 -5 0 -20
18 -35 39 -14 22 -32 42 -40 45 -8 3 -14 11 -14 18 0 7 -14 27 -30 45 -17 18
-30 35 -30 38 0 14 -53 74 -60 70 -5 -3 -12 -1 -15 5 -4 6 -15 8 -25 5 -10 -3
-22 0 -26 6 -5 8 -3 9 6 4 9 -6 11 -4 6 4 -5 7 -15 10 -23 7 -9 -4 -22 -1 -29
5 -11 9 -14 8 -14 -5 0 -9 4 -16 8 -16 5 0 14 -12 20 -26 8 -16 17 -22 25 -18
6 4 9 4 5 -1 -14 -15 11 -43 33 -38 19 5 21 3 17 -15 -4 -12 -2 -22 4 -22 5 0
7 -4 4 -9 -3 -4 33 -59 79 -121 l85 -113 -78 -76 c-77 -76 -162 -152 -162
-144 0 2 -25 -12 -55 -31 -30 -20 -66 -38 -80 -42 -14 -3 -25 -10 -25 -15 0
-5 -3 -8 -7 -7 -5 1 -24 -4 -43 -11 -19 -8 -39 -15 -45 -16 -160 -45 -325 -55
-465 -30 -52 10 -102 18 -110 19 -8 1 -25 8 -38 15 -13 7 -31 10 -40 6 -9 -3
-13 -3 -10 1 4 3 -30 24 -74 46 -99 47 -161 91 -250 176 -52 50 -71 62 -87 57
-12 -3 -21 -11 -21 -16 0 -6 5 -7 12 -3 7 4 8 3 4 -5 -4 -6 -11 -9 -16 -6 -17
10 -38 -6 -33 -26 5 -16 8 -18 14 -7 7 10 9 10 10 -2 1 -8 1 -20 0 -27 -2 -17
104 -108 202 -173 103 -68 204 -113 331 -146 50 -12 81 -23 70 -24 -36 0 -192
49 -273 86 -76 35 -200 110 -213 129 -4 5 -8 7 -8 3 0 -3 -38 31 -85 75 -52
50 -87 77 -90 70 -2 -7 -11 -13 -20 -13 -18 0 -19 -5 -4 -31 5 -11 15 -16 21
-13 6 4 8 3 5 -3 -13 -20 176 -178 201 -168 9 3 13 3 9 -1 -11 -12 33 -44 123
-89 100 -50 220 -90 334 -110 88 -15 320 -20 312 -6 -3 4 5 6 19 4 31 -6 205
27 205 39 0 5 4 7 9 4 16 -10 191 66 282 123 100 63 229 175 229 199 0 8 3 13
6 9 3 -3 18 5 32 18 22 21 24 26 12 40 -12 15 -12 17 5 14 27 -5 45 8 45 32 0
13 4 18 12 13 8 -5 9 -2 5 10 -4 9 -3 15 3 11 22 -13 157 262 164 337 2 18 9
46 15 63 12 28 10 82 -3 103 -9 15 4 42 21 42 14 0 15 19 10 148 -5 149 -22
262 -39 262 -5 0 -6 4 -3 10 6 10 -40 159 -54 173 -4 4 -19 3 -33 -3 l-25 -12
34 -96 c18 -54 33 -105 33 -114 0 -10 3 -18 8 -18 10 0 17 -122 16 -265 -2
-124 -23 -242 -64 -352 -23 -63 -85 -188 -111 -224 -14 -20 -15 -29 -6 -38 9
-10 9 -11 -3 -6 -11 4 -27 -9 -50 -41 -19 -26 -34 -50 -33 -55 2 -5 -3 -8 -10
-6 -7 1 -11 -6 -9 -17 2 -11 -1 -15 -8 -11 -6 4 -34 -15 -63 -42 -79 -75 -174
-138 -287 -192 -56 -27 -98 -51 -93 -53 4 -3 3 -3 -4 -2 -7 2 -15 -1 -18 -6
-3 -5 -12 -7 -21 -3 -17 6 -46 -26 -36 -42 3 -5 -2 -4 -12 4 -13 11 -14 16 -4
22 10 7 10 9 0 9 -13 0 -33 -40 -25 -52 2 -5 -7 -8 -20 -8 -14 0 -28 7 -31 16
-3 8 -2 13 3 9 12 -7 41 4 41 16 0 5 -19 7 -42 4 l-43 -5 50 14 c95 27 110 33
107 46 -2 10 0 11 11 2 11 -9 23 -9 53 2 96 34 271 136 257 150 -5 4 -3 6 3 4
18 -5 76 41 68 54 -4 6 -3 8 3 5 15 -10 142 128 198 213 38 58 45 74 34 82
-11 8 -11 9 2 5 20 -6 66 83 54 104 -5 7 -4 10 3 5 12 -7 45 85 67 189 18 87
31 275 19 275 -5 0 -9 24 -10 53 -1 80 -13 144 -45 240 -37 112 -80 195 -98
189 -9 -3 -11 2 -6 17 4 15 2 21 -8 21 -9 0 -17 -5 -19 -12 -3 -8 -12 -6 -29
6 -14 9 -29 13 -32 9 -4 -3 -8 -2 -8 3 -1 5 -3 23 -5 39 -2 17 0 42 5 56 10
28 -2 49 -26 49 -17 0 -17 -27 0 -33 6 -2 0 -4 -15 -4 -27 0 -27 0 -12 29 13
26 14 33 2 43 -11 11 -18 10 -39 -6z m16 -79 c3 -5 1 -10 -4 -10 -6 0 -11 5
-11 10 0 6 2 10 4 10 3 0 8 -4 11 -10z m53 -42 c-10 -47 -18 -61 -18 -33 0 10
-10 27 -22 38 -22 19 -22 19 -2 13 13 -4 26 -1 34 9 18 22 19 20 8 -27z m-43
-157 c-3 -6 -11 -11 -17 -11 -6 0 -6 6 2 15 14 17 26 13 15 -4z m-40 -30 c3
-5 1 -12 -5 -16 -5 -3 -10 1 -10 9 0 18 6 21 15 7z m209 -36 c-6 -16 -24 -21
-24 -7 0 11 11 22 21 22 5 0 6 -7 3 -15z m-281 -67 c3 -10 1 -16 -4 -12 -5 3
-9 0 -9 -7 0 -19 -14 -1 -15 20 -2 23 22 23 28 -1z m6 -651 c8 -10 7 -14 -4
-14 -8 0 -15 6 -15 14 0 7 2 13 4 13 2 0 9 -6 15 -13z m45 -143 c3 -8 2 -12
-4 -9 -6 3 -10 10 -10 16 0 14 7 11 14 -7z m45 -15 c-9 -17 -13 -19 -19 -8
-11 16 -4 29 16 29 12 0 13 -4 3 -21z m153 -61 c-7 -7 -12 -8 -12 -2 0 14 12
26 19 19 2 -3 -1 -11 -7 -17z m-112 -114 c0 -8 -19 -13 -24 -6 -3 5 1 9 9 9 8
0 15 -2 15 -3z m11 -187 c-10 -9 -11 -8 -5 6 3 10 9 15 12 12 3 -3 0 -11 -7
-18z m-1320 -110 c-10 -9 -11 -8 -5 6 3 10 9 15 12 12 3 -3 0 -11 -7 -18z
m939 19 c0 -2 -7 -7 -16 -10 -8 -3 -12 -2 -9 4 6 10 25 14 25 6z m-65 -98 c5
4 5 1 1 -5 -10 -18 -23 -16 -30 3 -5 13 -4 14 7 6 8 -7 18 -8 22 -4z m-155
-42 c0 -3 -4 -8 -10 -11 -5 -3 -10 -1 -10 4 0 6 5 11 10 11 6 0 10 -2 10 -4z
m-332 -43 c-10 -2 -28 -2 -40 0 -13 2 -5 4 17 4 22 1 32 -1 23 -4z m191 -9 c2
-2 -12 -4 -33 -4 -26 0 -35 -4 -30 -12 4 -6 3 -8 -4 -4 -17 10 -72 14 -66 5 3
-5 0 -9 -5 -9 -6 0 -11 -7 -11 -16 0 -13 -3 -14 -13 -5 -8 6 -17 8 -20 4 -4
-3 -7 -4 -7 -1 0 10 35 45 50 50 16 5 132 -1 139 -8z m79 9 c-10 -2 -26 -2
-35 0 -10 3 -2 5 17 5 19 0 27 -2 18 -5z"/>
<path d="M2155 2039 c-4 -5 7 -15 24 -22 32 -12 38 -21 21 -32 -5 -3 -10 0
-11 7 0 7 -4 4 -8 -7 -12 -30 -3 -48 16 -30 8 8 19 15 24 15 17 0 9 29 -11 43
-11 8 -17 17 -12 22 4 5 1 5 -5 1 -7 -4 -13 -2 -13 3 0 14 -17 14 -25 0z"/>
<path d="M2246 1914 c-3 -9 -13 -14 -21 -11 -8 4 0 -20 22 -61 20 -37 38 -69
39 -71 2 -2 15 4 29 13 22 15 24 19 13 39 -7 14 -13 17 -16 9 -2 -6 -11 -12
-20 -12 -15 0 -15 2 -2 10 10 7 11 10 2 10 -8 0 -11 10 -7 31 8 44 -25 80 -39
43z"/>
<path d="M424 1847 c-23 -12 -71 -44 -108 -72 -73 -55 -86 -79 -127 -236 -17
-66 -18 -83 -8 -95 11 -13 10 -18 -4 -26 -16 -8 -18 -25 -16 -134 0 -68 4
-124 9 -124 4 0 5 -10 3 -22 -2 -13 1 -43 7 -68 6 -25 13 -56 16 -70 7 -33 10
-35 29 -16 21 21 24 20 22 -3 0 -10 -6 -17 -13 -14 -25 9 -25 -20 1 -86 19
-47 34 -71 47 -75 16 -4 19 -10 14 -31 -5 -19 -4 -25 5 -19 8 4 9 3 5 -4 -7
-12 88 -162 103 -162 5 0 14 6 20 14 7 8 23 17 36 20 27 7 30 17 15 45 -8 15
11 46 101 165 91 121 108 150 98 162 -10 12 -9 13 3 9 18 -7 30 4 78 69 19 26
46 61 60 79 14 17 20 28 13 24 -6 -4 -15 -3 -18 3 -4 6 -1 9 7 8 7 -2 12 3 10
10 -5 27 19 9 59 -43 23 -30 45 -52 50 -49 5 3 6 -1 3 -9 -3 -9 4 -22 18 -31
12 -9 19 -16 14 -16 -5 0 -3 -7 4 -15 7 -8 16 -12 21 -9 5 3 6 -2 3 -10 -4
-11 0 -16 15 -16 12 0 21 -5 21 -11 0 -8 5 -8 15 1 8 7 12 17 8 23 -3 5 -2 7
3 4 6 -3 16 -2 23 2 10 7 -10 40 -79 130 -76 102 -94 120 -106 110 -8 -6 -17
-9 -21 -5 -3 3 -1 6 5 6 7 0 12 4 12 8 0 5 -10 8 -22 7 -13 -2 -22 -7 -21 -13
2 -6 -4 -9 -12 -6 -11 5 -12 10 -2 25 7 12 15 15 21 9 13 -13 26 -13 26 1 0 5
-4 8 -9 4 -6 -3 -15 3 -20 14 -10 18 -8 19 22 14 35 -5 62 -23 34 -23 -9 0
-17 -5 -17 -10 0 -7 6 -7 20 0 11 6 20 18 20 26 0 8 -4 13 -9 10 -4 -3 -14 7
-20 22 -7 15 -9 24 -5 20 4 -4 13 -3 21 3 10 9 13 7 13 -10 0 -12 4 -20 9 -17
5 3 7 15 4 26 -3 12 0 20 6 20 7 0 9 5 6 10 -3 6 -1 10 4 10 6 0 11 -4 11 -10
0 -23 21 -6 64 50 25 33 42 59 38 59 -24 -4 -42 2 -36 13 4 6 3 8 -4 4 -5 -3
-13 0 -15 6 -4 8 -6 7 -6 -3 -1 -9 6 -19 14 -23 8 -3 15 -10 15 -16 0 -6 -4
-8 -10 -5 -6 4 -10 -5 -10 -20 0 -23 -2 -25 -21 -14 -15 8 -19 8 -15 0 4 -6 3
-11 -3 -11 -5 0 -12 4 -16 10 -11 17 -33 -1 -30 -26 3 -27 -5 -30 -23 -12 -10
10 -15 10 -22 -2 -7 -11 -4 -17 8 -22 15 -6 15 -7 -3 -8 -11 -2 -24 -2 -30 0
-5 1 -2 -7 8 -18 21 -23 23 -39 2 -22 -8 6 -18 9 -24 6 -5 -4 -12 3 -16 14 -3
11 -11 20 -16 20 -6 0 -7 -5 -4 -10 4 -6 8 -26 11 -45 3 -27 -1 -37 -18 -49
-15 -11 -18 -16 -8 -16 13 0 13 -2 1 -9 -7 -5 -11 -14 -7 -20 4 -6 1 -9 -7 -5
-17 6 -117 -89 -117 -111 0 -3 -7 -13 -14 -22 -90 -110 -95 -117 -85 -130 8
-9 16 -10 33 -2 20 11 20 11 4 -7 -14 -14 -21 -16 -30 -6 -7 7 -15 12 -19 12
-3 0 -39 -43 -78 -95 -40 -52 -75 -95 -77 -95 -2 0 -21 34 -42 77 -23 45 -42
71 -46 65 -4 -7 -13 -12 -21 -12 -16 0 -12 43 5 48 5 2 10 10 10 18 0 9 -5 12
-12 8 -6 -4 -8 -3 -5 3 3 5 -3 52 -14 104 -22 105 -26 286 -8 370 12 57 9 65
-20 49 -12 -6 -21 -8 -21 -6 0 3 14 12 30 21 17 9 30 20 30 26 0 6 -6 7 -12 4
-7 -4 -6 -1 2 7 9 7 24 36 34 63 25 67 78 175 85 175 4 0 26 -27 50 -60 43
-59 61 -67 61 -29 0 10 3 19 8 19 4 0 8 12 9 27 1 18 -12 45 -34 75 -19 27
-35 48 -36 48 -1 -1 -21 -11 -43 -23z m77 -56 c-11 -7 -11 -9 0 -13 8 -3 12
-8 9 -11 -3 -3 -12 -2 -20 3 -11 7 -12 11 0 24 7 9 15 14 19 11 3 -3 -1 -10
-8 -14z m-296 -331 c-3 -5 -12 -10 -18 -10 -7 0 -6 4 3 10 19 12 23 12 15 0z
m805 -40 c0 -5 -2 -10 -4 -10 -3 0 -8 5 -11 10 -3 6 -1 10 4 10 6 0 11 -4 11
-10z m-752 -89 c2 -7 -5 -15 -17 -18 -12 -3 -21 -9 -21 -14 0 -5 -7 -9 -16 -9
-14 0 -14 2 0 15 8 8 22 15 30 15 18 0 22 16 6 23 -6 3 -5 4 2 3 6 -1 14 -8
16 -15z m632 -111 c-13 -24 -16 -25 -24 -4 -3 8 -2 12 4 9 6 -3 10 -1 10 4 0
6 5 11 10 11 7 0 7 -6 0 -20z m-680 -40 c13 -8 13 -10 -2 -10 -9 0 -20 5 -23
10 -8 13 5 13 25 0z m70 -176 c0 -8 -5 -12 -10 -9 -6 4 -8 11 -5 16 9 14 15
11 15 -7z m295 -74 c-3 -5 -11 -10 -16 -10 -6 0 -7 5 -4 10 3 6 11 10 16 10 6
0 7 -4 4 -10z m-70 -107 c-13 -8 -14 -13 -5 -13 17 0 5 -13 -15 -16 -9 -1 -11
4 -7 14 9 25 26 41 36 34 5 -3 1 -11 -9 -19z"/>
<path d="M1271 1849 c-1 -15 6 -32 14 -39 8 -7 15 -18 15 -24 0 -6 -5 -4 -10
4 -8 13 -10 12 -10 -3 0 -12 6 -17 18 -15 11 2 16 -2 14 -12 -3 -13 -1 -12 13
1 14 14 15 20 3 38 -7 11 -18 21 -25 21 -6 0 -16 12 -21 28 l-10 27 -1 -26z
m59 -69 c0 -5 -2 -10 -4 -10 -3 0 -8 5 -11 10 -3 6 -1 10 4 10 6 0 11 -4 11
-10z"/>
<path d="M1241 1731 c-8 -5 -9 -11 -3 -15 5 -3 12 1 16 9 6 17 6 18 -13 6z"/>
<path d="M1376 1692 c-10 -9 7 -32 23 -31 11 0 12 2 3 6 -9 3 -10 9 -3 17 8 9
6 13 -4 13 -8 0 -17 -2 -19 -5z"/>
<path d="M174 1682 c-6 -4 -13 -15 -17 -24 -3 -10 -13 -18 -21 -18 -17 0 -42
-101 -57 -230 -10 -81 -4 -274 9 -295 3 -5 7 -25 9 -44 1 -18 10 -60 19 -93
13 -45 21 -58 32 -53 12 4 12 3 3 -9 -9 -11 -8 -23 5 -53 9 -21 16 -41 16 -45
-1 -5 3 -8 10 -8 6 0 9 -3 5 -6 -16 -16 125 -240 156 -248 11 -2 26 2 34 9 12
13 8 23 -31 78 -24 34 -61 94 -81 134 -25 50 -41 70 -53 68 -9 -1 -11 0 -4 2
15 5 15 6 0 54 -6 22 -15 39 -20 39 -5 0 -6 5 -3 10 3 6 3 16 -2 23 -4 6 -8
17 -9 22 -40 209 -45 380 -16 520 11 50 17 96 15 103 -3 6 1 12 8 12 7 0 9 3
6 7 -4 3 -2 12 5 20 13 16 -1 36 -18 25z"/>
<path d="M1115 1649 c3 -8 -9 -29 -25 -46 -29 -31 -27 -48 2 -20 7 7 21 16 31
20 21 8 22 30 2 47 -13 11 -15 10 -10 -1z"/>
<path d="M626 1595 l-17 -25 -21 20 c-12 11 -23 18 -26 16 -6 -7 18 -46 28
-46 6 0 10 -4 10 -10 0 -5 24 -41 53 -79 45 -57 57 -67 71 -59 10 5 28 7 40 4
13 -3 26 -3 29 0 8 8 -52 94 -65 91 -6 -1 -14 10 -18 24 -8 29 -49 89 -61 89
-4 0 -14 -11 -23 -25z m54 -40 c0 -8 -4 -15 -10 -15 -5 0 -7 7 -4 15 4 8 8 15
10 15 2 0 4 -7 4 -15z m57 -71 c-3 -3 -12 -4 -19 -1 -8 3 -5 6 6 6 11 1 17 -2
13 -5z"/>
<path d="M1380 1598 c0 -22 17 -41 29 -34 17 11 13 29 -4 22 -8 -3 -15 -1 -15
3 0 5 6 12 13 14 7 3 5 6 -5 6 -10 1 -18 -5 -18 -11z"/>
<path d="M1450 1596 c0 -8 -7 -22 -16 -31 -16 -16 -12 -51 5 -41 5 3 7 -2 4
-12 -2 -10 5 -26 17 -37 18 -16 20 -17 14 -2 -5 13 -2 16 11 11 11 -5 15 -14
11 -29 -7 -28 2 -38 20 -20 17 16 19 39 3 29 -7 -4 -7 1 1 16 6 12 9 24 6 28
-3 3 -6 0 -6 -6 0 -7 -5 -12 -11 -12 -5 0 -7 5 -4 10 3 6 1 10 -5 10 -6 0 -18
7 -26 15 -14 13 -14 15 0 15 8 0 18 -5 21 -10 7 -11 25 -4 25 10 0 5 -7 7 -15
3 -9 -3 -15 -2 -14 3 3 19 -1 34 -11 34 -5 0 -6 -8 -3 -17 6 -15 4 -16 -9 -5
-9 7 -14 21 -11 32 3 11 3 20 -1 20 -3 0 -6 -6 -6 -14z"/>
<path d="M1050 1549 c0 -5 5 -7 10 -4 6 3 10 8 10 11 0 2 -4 4 -10 4 -5 0 -10
-5 -10 -11z"/>
<path d="M1821 1473 c-10 -26 -10 -27 4 -9 8 11 15 23 15 28 0 15 -7 8 -19
-19z"/>
<path d="M1780 1445 c-10 -12 -10 -15 4 -15 9 0 16 7 16 15 0 8 -2 15 -4 15
-2 0 -9 -7 -16 -15z"/>
<path d="M1691 1374 c1 -21 16 -47 21 -38 4 5 0 18 -8 29 -8 10 -14 15 -13 9z"/>
<path d="M1622 1346 c-3 -6 -7 -18 -9 -26 -1 -13 0 -13 11 0 6 8 17 20 24 26
10 8 9 11 -3 11 -9 0 -19 -5 -23 -11z"/>
<path d="M1618 1298 c-15 -12 -14 -15 5 -33 12 -11 21 -18 20 -16 -2 2 2 9 7
16 6 8 5 17 -3 29 -10 14 -15 15 -29 4z"/>
<path d="M1667 1250 c-3 -13 1 -24 14 -30 21 -12 25 0 7 19 -11 10 -10 11 5 6
12 -5 17 -2 17 9 0 23 -37 20 -43 -4z"/>
<path d="M1590 1246 c0 -2 7 -6 15 -10 8 -3 15 -1 15 4 0 6 -7 10 -15 10 -8 0
-15 -2 -15 -4z"/>
<path d="M1740 1215 c0 -8 -11 -17 -26 -21 -16 -4 -24 -12 -21 -23 2 -9 9 -15
17 -13 7 2 17 -3 22 -10 7 -9 8 -6 4 11 -3 14 1 30 10 38 16 17 18 33 4 33 -5
0 -10 -7 -10 -15z"/>
<path d="M1578 1187 c-27 -11 -48 -24 -48 -29 0 -16 35 -7 72 18 58 41 51 44
-24 11z"/>
<path d="M1640 1186 c-7 -13 -22 -27 -34 -30 -18 -5 -19 -8 -6 -16 11 -7 21
-2 42 23 28 33 34 47 20 47 -5 0 -14 -11 -22 -24z"/>
<path d="M1753 1153 c0 -8 6 -12 13 -9 8 3 10 -2 6 -16 -3 -14 -1 -19 6 -14
18 11 14 43 -6 48 -12 3 -19 0 -19 -9z"/>
<path d="M1816 1125 c-8 -23 -8 -27 3 -20 5 3 12 1 16 -5 3 -5 1 -10 -4 -10
-6 0 -11 -4 -11 -10 0 -5 8 -10 18 -10 10 0 23 -5 30 -12 9 -9 12 -9 12 0 0 7
-5 12 -11 12 -5 0 -8 3 -6 8 3 4 -5 20 -18 35 -19 24 -23 26 -29 12z"/>
<path d="M1740 1099 c12 -16 24 -29 27 -29 3 0 1 6 -4 13 -6 6 -9 19 -8 27 2
10 -5 17 -16 17 -19 2 -19 1 1 -28z"/>
<path d="M1585 1110 c3 -5 1 -10 -4 -10 -6 0 -11 -5 -11 -11 0 -8 5 -8 15 1
17 14 20 30 4 30 -5 0 -7 -4 -4 -10z"/>
<path d="M1460 1071 c0 -5 -11 -21 -25 -37 -14 -16 -58 -72 -98 -124 -40 -52
-79 -96 -86 -98 -7 -1 -10 2 -6 8 3 5 -4 23 -16 40 -24 31 -42 40 -33 16 3 -8
1 -17 -4 -20 -5 -3 -8 7 -6 24 2 16 -2 35 -9 42 -7 7 -16 21 -20 31 -5 13 -13
16 -27 12 -11 -4 -20 -2 -20 4 0 14 -11 14 -45 1 l-26 -10 46 -60 c25 -33 51
-60 56 -60 6 0 7 5 3 11 -4 7 1 7 16 -1 19 -10 20 -13 6 -23 -15 -11 -13 -17
15 -55 17 -23 35 -42 40 -42 5 0 9 -6 9 -12 0 -7 8 -23 18 -35 17 -22 18 -21
161 169 79 105 139 188 132 184 -6 -4 -11 -1 -11 7 0 8 -14 20 -31 26 -38 13
-39 13 -39 2z m-357 -136 c-3 -9 -8 -14 -10 -11 -3 3 -2 9 2 15 9 16 15 13 8
-4z m47 -29 c0 -3 -4 -8 -10 -11 -5 -3 -10 -1 -10 4 0 6 5 11 10 11 6 0 10 -2
10 -4z"/>
</g>
</svg>
